<svg viewBox="0 0 512 512" xmlns="http://www.w3.org/2000/svg">
<path d="M336 0c-97.2 0-176 78.8-176 176 0 14.71 2.004 28.93 5.406
 42.59l-156 156C3.371 380.6 0 388.8 0 397.3V496c0 8.8 7.164 16 16
  16h96c8.836 0 16-7.164 16-16v-48h48c8.836 0 16-7.164 16-16v-48h57.37c4.242
   0 8.312-1.688 11.31-4.688l32.72-32.72c13.7 2.508 27.9 4.508 42.6 4.508 97.2 
   0 176-78.8 176-176S433.2 0 336 0zm40 176c-22.09 0-40-17.91-40-40s17.9-40 40-40 
   40 17.9 40 40-17.9 40-40 40z" fill="#17a47b" 
class="fill-000000"></path></svg>